<?xml version="1.0" encoding="UTF-8"?>
<svg id="Layer_1" xmlns="http://www.w3.org/2000/svg" version="1.1" viewBox="0 0 1254 1254">
  <!-- Generator: Adobe Illustrator 30.4.0, SVG Export Plug-In . SVG Version: 2.1.4 Build 226)  -->
  <defs>
    <style>
      .st0 {
        fill: #f8d9b0;
      }

      .st1 {
        fill: #ad6b35;
      }

      .st2 {
        fill: #4c331b;
      }

      .st3 {
        fill: #e2b17b;
      }

      .st4 {
        fill: #fdf1dc;
      }
    </style>
  </defs>
  <path class="st4" d="M0,0h1254v1254H0V0ZM349.42,502.74c-7.29.93-11.58,6.31-14.9,13.1l-6.64,23.29c-.3,2.58-.09,5.54.99,7.81-1.3,5.6,6.21,9.96,2.04,14.91-3.85,16.83,10.77,36.48,26.63,42.39,4.78,8.36,11.64,15.39,18.13,22.46-5.7,5.49-10.54,11.45-14.16,17.95-5.83,9.78-10.32,20.4-14,31.19l.04.97-.86,2.33-1.74,7.78-.94,2.2-3.29,15.87c-.46,1.39-.55,3.43-.17,4.96l-.47,9.06-.7.79.36,1.22-.02,18.01-.63,1.49.6,1.5c3.99,30.9,13.98,61.87,32.84,87.12,6.75,7.92,12.9,15.72,22.33,18.22l2.18-.42,2.01,1.26c18.26,28.02,44.67,52.24,74.08,68.93,9.77,5.53,18.61,14.23,30.43,16.31l25.92,12.39-4.95,8.29c-10.32-5.93-18.98-4.84-24.75,3.34l3.02,2.86-8.85-.56c1.25-1.73,1.53-2.74.88-4.03-2.28-1.35-3.58-1.39-5.72-.94-5.52,2.21-10.59,2.89-16.13,1.11-4.45-1.17-9.02-.18-13.01,1.92-7.93-1.5-15.22-.31-19.51,6.8l-30.9,6.1c-6.46,6.62-15.59,5.84-23.06,10.04l1.66,4.89-3.97,4.07,16.39,18.51,5.08,2.45.75,8.71c7.43-5.81,11.24-1.96,17.25.79l8.21-1.61,1.53,7.72c4.82,4.29,10.59-.25,15.87,1.25,3.16-.74,4.3-.69,8.81,0l1.22,6.43,13.95-5.4,3.16,4.36,7.24-1.48c4.6,2.09,10.46,6.25,15.29,5.92,9.1-1.57,18.5-.49,27,.42,12.9,2.44,25.07,4.08,38.05,5.07,11.75,5.26,24.59,6.51,36.93,3.1l13.12,4.58,38.72-4.36c16.25-.78,32.84-2.87,48.76,3.55,13.4-.68,25.47-2.3,38.61-1.27l36.79-6.3c14.15-.28,28.64-.25,42.39-3.18,6.01-4.53,13.48-2.58,20.87-1.34,22.82-5.84,45.85-5.88,68.18-13.63,6.5-1.88,13.55,1.5,18.86-5.48,8.39,2.88,16.06-.2,21.73-6.25,7.6,2.07,13.61,1.99,18.9-3.64,5.75,1.36,11.06-.2,15.62-3.67,5.27,1.38,10.48,1.09,16.07-1.09,4.98,2.24,9.09,1.49,10.96-3.77,2.46-4.05,1.13-8.6-3.58-12,5.28-2.43,8.04-3.86,11.98-6.46,2.52-3.05-2.53-6.38-2.97-12.66l-30.43-3.16c3.17-4.45,2.52-8.8-.54-13.36-3.46-3.42-7.7-6.04-13.3-9.67,23.83,2.54,48.45,4.61,71.14-4.73,11.94-4.36,20.16-14.92,16.06-26.86-4.35-7.33-12.37-8.58-19.65-12.8-21.06-7.57-43.3-9.91-65.57-13.83,17.94-3.61,33.92-8.53,49.72-16.18,14.73-7.09,27.54-16.75,36.81-30.08,4.46-7.12,5.49-15.43,1.91-22.65-4.59-6.73-11.11-11.02-20.36-11.56-27.43-1.95-53.39,7.9-77.72,21.14,5.29-4.36,8.33-9.31,8.66-16.4,1.67-20.72-4.86-40.35-12.77-58.15-.26-10.19-5.19-19.67-10.07-27.75-9.87-27.06-24.4-52.15-45.2-72.48l2.51.23-.81-3c-6.14-11.45-11.2-23.1-10.11-36.38,5.35-1.97,9.56-5.83,10.38-10.24,1.25-6.09-.22-10.8-5.04-15.81,6.48-.59,10.91-4.19,11.8-10.85.56-7.64-3.29-14.62-8.39-20.14,2.63-15.79,3.99-30.88,4.42-46.17l-1.46-26.03c1.94-17.84-2.92-35.1-7.85-51.92-1.65-15.67-8.05-29.16-13.97-43.14-5.27-19.89-18.73-33.88-29.04-51.42-21.28-31.67-54.12-55.68-88-72.93l-22.29-10.7,37.1,3.98c3.57-3.62,1.96-5.56-.21-8.01l-5.5-4.68c-36.2-19.01-78.31-25.88-119.13-21.28l.04-.86,32.24-15.5c3.18-2.79,5.7-5.13,5.16-8.51-2.34-2.61-5.17-3.65-9.37-5.19-30.01-1.1-60.83,12.08-84.3,32.41-63.03,6.62-121.1,34.22-167.23,78.48-38.05,34.72-64.58,80.93-76.23,131.27-6.21,23.18-9.9,45.69-9.93,68.68Z"/>
  <path class="st1" d="M659.07,221.09c-2,.41-3.87,1.08-6.23,2.42,2.13.56,4.43-.21,6.18-1.55,40.83-4.59,82.93,2.28,119.13,21.28-1.91,4.7,3.69,3.58,6.52,10l-24.75-2.79c-15.09-2.65-29.67-4.83-45.08-2.87,18.74,3.56,36.43,9.65,54.21,15.06,33.87,17.26,66.71,41.26,88,72.93,10.31,17.54,23.77,31.53,29.04,51.42,5.92,13.98,12.32,27.47,13.97,43.14,4.93,16.83,9.79,34.09,7.85,51.92l1.46,26.03-3.9-24.87c-.66-7.23-.98-16.4-7.98-20.94,7.04,20.46,9.44,37.95,2.18,57.88l-2.89-16.21c-3.83,6.53-2.88,12.83-2.71,21.19-1.99-.84-2.52-2.11-2.26-2.88l-2.62-2.08-.9,5.72.56,3.63-.92,1.66-2.52-2.57c-2.06,6.1,1.34,8.21,4.72,13.95-13.59-4.97-27.98-1.72-42.07-.4,6.96-54.19-18.05-112.18-61.81-144.8-13.71-9.42-26.54-16.26-41.99-17.47,2.45-6.91-4.78-8.54-10.48-9.68-14.15,1.01-29.41,6.19-40.33,17.75,13.86-4.38,28.32-2.15,36.89,9.95-.29,2.84-1.06,4.46-2.66,5.4l-6.6-1.07c-8.95-9.8-21.16-5.32-33.59-3.46-11.75,2.6-20.66,15.69-30.23,25.63-21.95,28.81-35.71,62.43-41.87,98.49-7.38-18.62-16.94-36.12-30.39-50.51-9.99-10.25-22.94-13.75-35.38-6.64-11.27,5.38-20.27,13.71-29.2,21.77l-1.89-37.15c-.51-25.16-6.23-49.26-17.05-71.54l-4.13,4.01-5.04-1.14c-7.8-7.57-17.93-7.37-29.02-7.74-.48-10.2,9.22-11.88,16.27-12.35,7.43.1,13.61,3.81,17.86,9.53l.96-.71c-4.42-14.51-14.56-27.27-30.24-29.54l-6.23,1.75c-.73.89-.71,2.25.15,5.37-14.25.26-27.35,5.03-39.22,13.64-45.99,34.07-69.66,88.09-67.31,145.12l-6.07-4.03c.03-22.99,3.72-45.5,9.93-68.68,11.64-50.34,38.18-96.55,76.23-131.27,46.13-44.27,104.19-71.87,167.23-78.48,23.47-20.34,54.28-33.51,84.3-32.41,4.19,1.54,7.03,2.58,9.37,5.19.54,3.38-1.98,5.72-5.16,8.51l-32.24,15.5ZM855.5,335l-.5.5.5.5.52-.5-.52-.5ZM498.91,370.93l-.76,1.9.76-1.9Z"/>
  <path class="st3" d="M736.39,755.98c3.56,23.72,13.2,46,27.13,65.65-2.34.6-4.15,2.91-4.95,5.44l13.78,5.64,1.95,2.14c-1.34,4.93,2.75,9.11,7.09,11.15,3.06,4.59,7.25,6.71,4.61,11.12l4.15,5.67-2.34,6.27,7.55-2.29,3.71,6.99c5.08,8.37,7.92,16.81,17.76,21.4l-11.38,1.33,14.14,11.32-5.89,1.4c-1.19.41-4.87,1.4-.01,3.98l-10.48,6c3.99,3.54,8.72,1.46,12.8-1.85,5.58.2,11.41,2.7,15.43,5.81-4.62,6.61-10.57,3.15-16.53,2.29-8.04-.63-12.59,5.33-20.95,5.96l4.2,2.51.63,3.21-3.84,1.56c-20.71,17.64-44.24,21.36-70.17,10.08,1.48,7.84,8.7,4.89,13.32,9.7-8.72,3.43-17.24,4.04-26.09,6.17l-43.29-6.82c3.29,3.5,7.36,4.18,11.07,5.81l-3.8,5.87,12.93.12c3.6,2.79,9.59,3.02,14.02.28l35.29,2.08-2.84,7.4c-1.93,1.67-5.26,2.22-8.68,2.84-17.26,1.2-34.63,5.69-47.84,16.21-12.05,9.59-17.64,23.72-9.9,36.59-7.36-.65-16.91.1-22.74-5.99-11.92-3.14-23.9,2.49-36.24-.91l-31.58-5.21c-8.35-4.22-16.45-6.04-25.56-6.48l-6.43-1.63-2.91,5.25c-13.34-1.17-26.8-.25-40.52,1.78-5.29.95-10.63,1.98-14.48-1.18,12.61-.44,23.7-3.6,35.23-10.08,20.63-9.27,43.25-12.52,65.97-12.97l19.61-3.46c1.26-9.07-3.68-17.25-12.73-19.78-8.85-2.59-17.86-3.05-26.76-2.93v-2.85s3.18-1.42,3.18-1.42c8.2,2.68,16.33-1.94,24.04,2.43,15.11,1.05,30.2.59,44.96-.66,10.98-.6,22.52,3.13,34.77-.53-14.76-6.09-30.15-1.84-45.06-5.96-12.52-3.68-23.85-8.35-35.32-13.74l3.83,5.16c-4.34,1.25-7.17-2.6-10.62-2.1-.82,7.43-10.73,5.48-15.53,1.89-22.57-4.4-44.37-10.77-64.44-21.89-9.24-7.04-18.34-13.93-30.18-15.36-6.56-3.18-11.71-8.68-16.91-14.67l.75,3.34.07.94c.97,5.47,8.22,5.06,9.77,11.17-29.4-16.69-55.82-40.91-74.08-68.93-16.76-33.6-32.1-68.67-31.02-105.95,1.14-5.41,1.61-10.79,1.53-16.41l-3.78,12.23c-2.69-14.38.35-29.29,4.12-43.39l4.5,11.62,7.45-4.92c-1.5,11.75-3.27,21.85-2.03,32.52,4.84-.15,6.69.73,10.4,3.82l.77,9.77c5.45-2.6,11.49-2.61,15.41-.43l-1.09,5.88,4.75,1.82,2.36,4.93,4.82-.29c-.36,6.73,2.48,9.13,8.1,11.73-2.71-6.73.75-11.47,3.66-18.51l5.8,16.93,6.16,2.71,3.98-3.72c1.9,5.6,3.73,10.52,4.03,15.76,3.52,2.46,4.9,4.51,8.45,9.27l.05-5.03,2.37.21.73,4.02,25.08,15.18c5.93-.76,5.72,7.46,10.94,9.27,12.28.67,24.84,4.64,33.64,13.31,1,1.86,1.8,2.89,3.55,4.93l3.67-4.65c3.4,2.47,7.1,4.88,11.51,5.68,1.05-8.19,7.01-9.12,13.59-9.73,2.35-1.72,4.88-2.85,7.3-2.75,2.54,1.96,3.46,2.73,5.34,6.38.87.37,4.68.68,6.44.54l2.39-7.77c6.49,1.49,10.8,7.43,12.99,12.59,6.74-2.98,12.39,2.89,17.76-1.46l-.82-4.92c-.42-1.23.67-2.81,1.63-1.81l2.9,1.52,6.77-2.54c1.52.62,3.8,2.07,3.53,2.72-3.81,1.43-4.88,2.03-6.37,4.33.79,1.39,2.38,2.68,4.13,3.73l15.88,2,.7-6.47-3.65-3.51,6.93-1.6c1.59,1.46,1.44,2.87.01,6.03,4.42.18,8.52-.36,10.73,4.36l5.55.62-.18-5.34,7.9,3.19.59-6.37,6.87,2.48,1.69-5.62c3.14,4.35,5.79,4.75,10.72,1.91,4.92-.82-1.75-3.57,1.66-8.7,4.25,1.69,7.82,5.91,8.91,1.16,4.89-1.68,3.54-5.02.71-9.12l17.41,3.64,2.61-3.03,5.35,2.73-2.83-4.69c-.45-.76,1.5-.74,2.34-.09l4.05,2.28c-2.4-6.52,4.38-6.69,8.86-10.59l-2.33-3.26,1.25-1.36,4.16-.08c-3.15-14.26-7.6-27.99-6.07-41.87ZM588.45,831.19l2.2,5.46,3.04,1.04-.78-4.04-4.46-2.47Z"/>
  <path class="st2" d="M909.37,508.08c-.43,15.29-1.79,30.39-4.42,46.17,5.1,5.52,8.95,12.5,8.39,20.14-.89,6.66-5.32,10.26-11.8,10.85,4.83,5.01,6.3,9.72,5.04,15.81-.83,4.41-5.03,8.27-10.38,10.24-1.09,13.28,3.97,24.92,10.11,36.38l.81,3-2.51-.23c-9.31-4.72-16.97-13.54-28.4-11.02l2.78,4.01-29.51,2.56c-6.26-6.44-19.05-3.97-24.61.05-11.16,5.11-24.46,10.65-36.63,12.72-10.3-2.45-26.56,10.93-27.44,22.27-7.76,1.86-13.15,9.32-14.92,18.44-7.66,18.12-9.81,37.61,2.76,54.03-.63-6.72-1.78-13.11.49-19.95l6,23.75c.27-4.51-.41-7.99.93-11.98,7.35,14.8,13.98,28.88,30.24,32.73-2.16-4.62-7.41-9.26-4.91-13.65,7.49,7.18,10.32,18.12,21.86,17.87l-5.01-8.66c5.64,4.04,10.21,10.44,16.22,6.17l-2.47-4.36c-.32-.85-.34-2.84.13-2.32l5.16,2.42c2.74-8.75-5.24-14.27-6.54-23.27,11.08,7.87,17.78,20.94,31.35,21.77,13.67,7.52,27.47,8.4,40.26-.77,5.48-9.28,2.28-19.34-3.54-27.57l-.84-.9,1.27-.71.51.6c11.04,7.07,23.05,14.49,36.27,13.95,7.77-1.12,13.89-2.79,15.25-10.79-.38-7.55-3.58-14.54-6.71-21.07l-.15-.53-.66-.59-.68-.62.83-.92.72.73.6.59.41.54,16.35,8.66c.2-8.06-3.54-11.93-.1-18.1,2.35,4.35,4.06,7.77,7.94,6.42,4.88,8.08,9.82,17.56,10.07,27.75,7.91,17.8,14.44,37.43,12.77,58.15-.33,7.1-3.37,12.04-8.66,16.4,24.33-13.23,50.29-23.08,77.72-21.14,9.25.54,15.77,4.84,20.36,11.56,3.58,7.22,2.56,15.53-1.91,22.65-9.27,13.33-22.08,22.98-36.81,30.08-15.8,7.65-31.78,12.58-49.72,16.18,22.27,3.92,44.51,6.26,65.57,13.83,7.28,4.23,15.3,5.47,19.65,12.8,4.1,11.93-4.12,22.5-16.06,26.86-22.69,9.33-47.31,7.27-71.14,4.73,5.6,3.62,9.83,6.24,13.3,9.67,3.06,4.56,3.72,8.91.54,13.36-9.25,7.27-21.33,7.9-32.7,6.42l-40.47-8.38-14.26-4.94c-5.56-1.55-9.56-7.75-16.56-6.06l-36.66-18.39,12.03-10.25c17.27-7.46,32.45-17.8,43.39-34.07-17.96-.55-33.19-6.48-50.43-10.23-29.25-6.05-54.68-24.45-75.52-45.08l-1.95-2.14-8.83-11.08c-13.93-19.64-23.57-41.92-27.13-65.65-4.03-27.52,1.98-54.43,17.12-77.74l11.59-13.34,22.26-14.13,24.03-7.25-20.09-3.72c-13.8-5.6-28.17-15.22-29.2-32.2,15.85-17.83,33.31-33.96,52.08-48.29,10.79-7.76,21.92-12.68,33.86-17.15,14.1-1.32,28.48-4.57,42.07.4-3.38-5.74-6.78-7.86-4.72-13.95l2.52,2.57.92-1.66-.56-3.63.9-5.72,2.62,2.08c-.26.77.27,2.04,2.26,2.88-.17-8.36-1.12-14.66,2.71-21.19l2.89,16.21c7.26-19.93,4.86-37.41-2.18-57.88,7,4.54,7.32,13.72,7.98,20.94l3.9,24.87ZM900.5,522l-.5.5.5.5.5-.5-.5-.5ZM899.15,644.04l-5.91-14.85-11.52,5.47,17.43,9.38Z"/>
  <path class="st1" d="M904.6,650.44c20.8,20.34,35.32,45.43,45.2,72.48-3.88,1.35-5.59-2.07-7.94-6.42-3.45,6.17.3,10.04.1,18.1l-16.35-8.66-1.06.81c3.13,6.53,6.33,13.52,6.71,21.07-1.37,8-7.48,9.67-15.25,10.79-13.22.55-25.23-6.88-36.27-13.95l-.93,1.01c5.82,8.23,9.02,18.29,3.54,27.57-12.79,9.17-26.6,8.29-40.26.77-13.57-.83-20.28-13.9-31.35-21.77,1.3,9,9.29,14.52,6.54,23.27l-5.16-2.42c-.47-.52-.45,1.47-.13,2.32l2.47,4.36c-6.01,4.27-10.58-2.13-16.22-6.17l5.01,8.66c-11.54.25-14.37-10.7-21.86-17.87-2.5,4.4,2.75,9.03,4.91,13.65-16.26-3.84-22.89-17.93-30.24-32.73-1.34,4-.65,7.48-.93,11.98l-6-23.75c-2.28,6.84-1.12,13.23-.49,19.95-12.58-16.43-10.42-35.91-2.76-54.03,1.77-9.12,7.16-16.58,14.92-18.44.89-11.35,17.14-24.72,27.44-22.27,12.18-2.06,25.47-7.61,36.63-12.72,5.56-4.02,18.35-6.5,24.61-.05l29.51-2.56-2.78-4.01c11.43-2.52,19.09,6.3,28.4,11.02ZM923.87,724.09l-.83.92.83-.92ZM924.59,724.82l-.86.82.66.59.8-.82-.6-.59ZM877.95,744.77l1.27-.71-1.27.71Z"/>
  <path class="st0" d="M493.94,959.78l-15.04,3.42c-9.75.7-18.84,4.4-26.93,9.78-4.3,1.61-13.38,1.65-12.44,7.1-1.07,5.21-6.88,5.85-11.14,10.59,5.94,8.53,14.99,14.32,25.05,16.29,3.19,7.55,10.96,7.93,18.23,9.21,4.18,2.95,8.73,6.56,13.4,4.06l3.44.39c3.85,3.16,9.19,2.12,14.48,1.18,13.73-2.03,27.19-2.95,40.52-1.78l2.91-5.25,6.43,1.63c9.11.44,17.22,2.26,25.56,6.48l31.58,5.21c12.34,3.4,24.33-2.23,36.24.91,5.83,6.09,15.39,5.34,22.74,5.99l3.6-.06,6.58,1.15c2.86,2.77,8.83,3.48,12.52,1.34,6.56,1.36,12.93,2.27,19.29,2.31,3.53,2.65,7.49,3.96,11.4,4.02l5.66,1.52,27.95-3.83c3.93-8.96,13.4-6.39,20.66-10.31,9.53-2.46,19.34-2.9,28.09-8.58l5.95.74,2.26-5.43c9.38,3.63,19.64.96,28.17-4.65,11.06,2.06,21.45-.69,31.83-4.47l7.9-.13,1.83-6.92c9.99,1.44,19.13,2.36,28.2.35,2.55,2.67,4.25,2.29,6.65-.62,0-.99-.64-2.93-1.84-6.78,8.63-2,16.34-1.47,24.81-1.55l-7.35-5.2c-.01-2.41.75-5.76,1.88-7.6,12.55-2.56,23.83.44,35.26-2.74l.73-2.49c-5.67-3.48-13.14,1.82-18.22-2.79,11.37,1.48,23.45.85,32.7-6.42l30.43,3.16c.45,6.27,5.49,9.6,2.97,12.66-3.94,2.6-6.7,4.03-11.98,6.46,4.72,3.41,6.04,7.96,3.58,12-1.87,5.26-5.99,6.01-10.96,3.77-5.59,2.18-10.79,2.47-16.07,1.09-4.56,3.47-9.87,5.03-15.62,3.67-5.29,5.63-11.3,5.71-18.9,3.64-5.67,6.05-13.34,9.13-21.73,6.25-5.3,6.98-12.35,3.59-18.86,5.48-22.32,7.75-45.35,7.79-68.18,13.63-7.38-1.24-14.85-3.19-20.87,1.34-13.75,2.93-28.24,2.91-42.39,3.18l-36.79,6.3c-13.13-1.03-25.21.6-38.61,1.27-15.93-6.42-32.52-4.32-48.76-3.55l-38.72,4.36-13.12-4.58c-12.33,3.41-25.17,2.17-36.93-3.1-12.98-.98-25.15-2.63-38.05-5.07-8.51-.91-17.91-2-27-.42-4.83.33-10.69-3.83-15.29-5.92l-7.24,1.48-3.16-4.36-13.95,5.4-1.22-6.43c-4.5-.7-5.64-.75-8.81,0-5.28-1.49-11.05,3.04-15.87-1.25l-1.53-7.72-8.21,1.61c-6-2.75-9.81-6.6-17.25-.79l-.75-8.71-5.08-2.45-16.39-18.51,3.97-4.07-1.66-4.89c7.46-4.2,16.6-3.42,23.06-10.04l30.9-6.1c4.3-7.11,11.58-8.3,19.51-6.8,3.99-2.1,8.56-3.09,13.01-1.92,5.53,1.78,10.61,1.1,16.13-1.11,2.14-.45,3.44-.41,5.72.94.65,1.29.38,2.3-.88,4.03Z"/>
  <path class="st2" d="M349.42,502.74l6.07,4.03c3.14,24.11,15.79,46.68,31.77,65.88,4.18,11.78-2.56,20.93-10.76,29.04-5.57,3.12-11.87,3.39-18.97,2.54-15.86-5.91-30.49-25.56-26.63-42.39,4.17-4.95-3.33-9.31-2.04-14.91,1.45-2.23,1.26-6.2-.99-7.81l6.64-23.29c3.32-6.78,7.61-12.16,14.9-13.1Z"/>
  <path class="st2" d="M371.1,690.03l-1.2,4.67c-3.77,14.1-6.81,29.01-4.12,43.39l2.25,4.18c-1.08,37.28,14.25,72.35,31.02,105.95l-2.01-1.26-.45-2.04-1.62.53-.11,1.92c-9.43-2.5-15.58-10.3-22.33-18.22-18.86-25.25-28.84-56.22-32.84-87.12l1.5-1.54-1.48-1.46.02-18.01,1.41-1.43-1.07-.58.47-9.06,1.74-2.44-1.57-2.52,3.29-15.87.94-2.2,1.74-7.78c5.25,2.65,1.39,8.9-1.84,13.24l.9,31.44,1.55,3.97,1.63-.99,1.19-5.08c2.04,6.39,2.91,12.32,5.76,17.09,4.2-6.94,5.89-11.29,3.97-17.79l7.86-35.66,3.39,4.67Z"/>
  <path class="st2" d="M570.12,957.81l-6.77,13.3,6.48.29c8.91-.12,17.92.34,26.76,2.93,9.05,2.53,13.99,10.71,12.73,19.78l-19.61,3.46c-22.72.45-45.34,3.7-65.97,12.97-11.53,6.48-22.62,9.64-35.23,10.08l-3.44-.39-2.32-9.1,7.59-3.29c2.98,1.93,3.89,3.79,3.97,7.72,11.45,1.14,22.02-5.21,32.25-10.68,5.6-2.02,9.64-5.04,15.4-4.35.76-6.17,5.22-6.68,10.85-7.77,1.62-3.55.31-6.44-1.32-10.22l-9.84-3.23c-1.75-4.01-3.6-6.56-7-10.49l14.29,5.11c2.92-4.35,3.18-7.52-.9-10.32-1.93-1.9-3.64-6.6-7.45-2.55-2.59-1.34-5.51-2.62-7.87-2.69l-5.77,7.49c-16.56-2.91-32.14-4.88-48.06-2.66l15.04-3.42,8.85.56,22.27,2.96,7.82-17.52c12.67,3.91,25.63,6.26,37.24,12.03Z"/>
  <polygon class="st3" points="384.48 629.5 382.86 630.92 381.7 629.94 384.48 629.5"/>
  <path class="st3" d="M376.51,601.69l3.33,3.22-.58,4.79c2.55,1.02,3.85,7.15,7.81,3.69,3.58,4.81,8.82,8.88,11.89,15.51,5.9,4.38,11.98,9.56,15.8,16.65-.87,5.74,2.68,8.52,6.13,11.09-5.37,4.94-8.7,10.73-10.51,15.85-4.98-1.92-7.61-2.57-10.52-1.63l-5.64,8.44-2.58-3.11-3.91,3.54-6.08,7.92-9.78-.9c-2.95-2.72-.91-6.23.19-9.69,4.13-13.73,9.65-27.04,16.43-39.28l14.01,10.01.88-3.11c-5.64-5.38-12.3-10.67-18.9-15.2-1.46-2.81-3.63-5.5-7.87-6.83l4.28,6.35-5.22-2.33c-6.49-7.07-13.35-14.09-18.13-22.46,7.1.85,13.39.58,18.97-2.54Z"/>
  <path class="st1" d="M372.05,677.08c-1.11,3.45-3.14,6.96-.19,9.69l-.76,3.26-3.39-4.67-7.86,35.66c1.91,6.5.23,10.85-3.97,17.79-2.85-4.77-3.72-10.7-5.76-17.09l-1.19,5.08-1.63.99-1.55-3.97-.9-31.44c3.23-4.34,7.08-10.59,1.84-13.24l.86-2.33-.04-.97c3.68-10.8,8.18-21.41,14-31.19,1.02,2.97,2.52,3.8,3.54,2.02l4.35-5.7c4.13-3.02,6.25,2.72,8.58,4.91.29,4.78-1.07,9.01-4.53,11.51-.2,7.11-1.56,13.36-1.4,19.69Z"/>
  <path class="st1" d="M642,968.89l-31.31-4.29c-14.05-.54-27.63-3.62-40.57-6.79-11.61-5.77-24.57-8.12-37.24-12.03l-3.41.07-25.92-12.39c-11.81-2.08-20.66-10.78-30.43-16.31-1.55-6.11-8.8-5.7-9.77-11.17l-.07-.94-.75-3.34c5.2,5.99,10.35,11.5,16.91,14.67,11.84,1.43,20.94,8.32,30.18,15.36,20.07,11.12,41.87,17.49,64.44,21.89,4.8,3.59,14.71,5.54,15.53-1.89,3.45-.5,6.28,3.36,10.62,2.1l-3.83-5.16c11.47,5.39,22.8,10.06,35.32,13.74,14.91,4.12,30.3-.13,45.06,5.96-12.25,3.66-23.79-.07-34.77.53ZM605.11,955c0-.61-.5-1.11-1.11-1.11s-1.11.5-1.11,1.11.5,1.11,1.11,1.11,1.11-.5,1.11-1.11Z"/>
  <path class="st2" d="M380.89,629.02l.8.93,1.16.97c2.26,2.04,4.51,3.66,5.62,6.88-6.78,12.24-12.3,25.55-16.43,39.28-.16-6.33,1.2-12.58,1.4-19.69,3.46-2.49,4.83-6.73,4.53-11.51-2.33-2.2-4.44-7.93-8.58-4.91l-4.35,5.7c-1.02,1.78-2.52.95-3.54-2.02,3.63-6.51,8.47-12.47,14.16-17.95l5.22,2.33Z"/>
  <path class="st2" d="M769.06,262.64c-17.78-5.41-35.47-11.5-54.21-15.06,15.41-1.96,29.99.22,45.08,2.87l24.75,2.79c-2.84-6.42-8.43-5.3-6.52-10l5.5,4.68c2.17,2.44,3.78,4.38.21,8.01l-37.1-3.98,22.29,10.7ZM744.66,251.49h-.65s.65.01.65.01h1.32s-.65-.01-.65-.01h-.67Z"/>
  <path class="st0" d="M532.88,945.78l-7.82,17.52-22.27-2.96-3.02-2.86c5.77-8.18,14.43-9.27,24.75-3.34l4.95-8.29,3.41-.07Z"/>
  <path class="st1" d="M328.87,546.94c-1.08-2.27-1.29-5.23-.99-7.81,2.25,1.62,2.44,5.58.99,7.81Z"/>
  <path class="st3" d="M659.07,221.09l-.04.86c-1.75,1.34-4.05,2.11-6.18,1.55,2.35-1.34,4.23-2,6.23-2.42Z"/>
  <path class="st1" d="M340.55,709.95c-.37-1.53-.28-3.56.17-4.96l1.57,2.52-1.74,2.44Z"/>
  <polygon class="st1" points="339.69 742.02 339.09 740.52 339.71 739.03 341.19 740.49 339.69 742.02"/>
  <polygon class="st1" points="339.74 721.01 339.37 719.8 340.08 719.01 341.15 719.59 339.74 721.01"/>
  <polygon class="st1" points="397.04 846.95 394.86 847.37 394.97 845.45 396.59 844.91 397.04 846.95"/>
  <path class="st1" d="M344.01,689.12l.94-2.2-.94,2.2Z"/>
  <path class="st2" d="M347.54,676.81l-.04-.97.04.97Z"/>
  <path class="st0" d="M520.41,487.5c-7.94,9.85-16.23,19.62-21.31,31.65-.75,4.28-.81,7.84.12,11.87,2.14,2.97,5.7,4.59,10.39,5.51,1.4,23.47,5.19,46.66,14.45,67.92-.67,12.73,10.8,23.85,21.19,29.42,12.41-3.77,22.76-8.47,30.98-16.58,14.01-12.68,23.48-26.97,32.05-42.09,7,1.68,4.74-10.07,3.33-13.46,4.91-13.1,10.45-25.73,3.77-38.87,6.16-36.06,19.92-69.68,41.87-98.49,9.56-9.94,18.47-23.03,30.23-25.63l4.43,3.41c10.08-3.67,19.49-2.1,29.15.05l6.6,1.07c1.6-.94,2.37-2.55,2.66-5.4-8.57-12.09-23.03-14.33-36.89-9.95,10.92-11.56,26.18-16.74,40.33-17.75,5.7,1.14,12.94,2.77,10.48,9.68,15.46,1.21,28.28,8.05,41.99,17.47,43.76,32.62,68.78,90.61,61.81,144.8-11.94,4.47-23.07,9.38-33.86,17.15-18.77,14.33-36.23,30.46-52.08,48.29,1.03,16.98,15.4,26.59,29.2,32.2l-4.7.63-.03,2.94,4.88,1.78-5.13,2.06c-2.54-.03-1.91,3.59,1.04,3.56l-22.26,14.13c-1.59-1.28-6.55,1.22-5.64-3.81-17.68,6.77-37.64,9.25-56.88,18.68,14.4,3.67,27.6-2.31,41.21-3.26l5.79-1.65,3.93,3.37c-15.14,23.31-21.15,50.23-17.12,77.74-1.54,13.88,2.92,27.6,6.07,41.87l-4.16.08-1.25,1.36,2.33,3.26c-4.49,3.91-11.26,4.07-8.86,10.59l-4.05-2.28c-.85-.64-2.79-.67-2.34.09l2.83,4.69-5.35-2.73-2.61,3.03-17.41-3.64c2.84,4.1,4.19,7.44-.71,9.12-1.08,4.75-4.66.53-8.91-1.16-3.41,5.13,3.26,7.88-1.66,8.7-4.94,2.84-7.58,2.44-10.72-1.91l-1.69,5.62-6.87-2.48-.59,6.37-7.9-3.19.18,5.34-5.55-.62c-2.21-4.71-6.3-4.18-10.73-4.36,1.42-3.16,1.57-4.57-.01-6.03l-6.93,1.6,3.65,3.51-.7,6.47-15.88-2c-1.76-1.05-3.34-2.34-4.13-3.73,1.49-2.31,2.56-2.9,6.37-4.33.27-.64-2.01-2.1-3.53-2.72l-6.77,2.54-2.9-1.52c-.96-1-2.05.58-1.63,1.81l.82,4.92c-5.38,4.35-11.03-1.52-17.76,1.46-2.19-5.16-6.49-11.1-12.99-12.59l-2.39,7.77c-1.76.14-5.58-.17-6.44-.54-1.88-3.65-2.81-4.42-5.34-6.38-2.42-.1-4.95,1.03-7.3,2.75-6.58.61-12.55,1.54-13.59,9.73-4.41-.8-8.12-3.21-11.51-5.68l-3.67,4.65c-1.75-2.04-2.55-3.06-3.55-4.93-8.81-8.67-21.36-12.64-33.64-13.31-5.22-1.81-5.01-10.03-10.94-9.27l-25.08-15.18-.73-4.02-2.37-.21-.05,5.03c-3.55-4.76-4.93-6.81-8.45-9.27-.3-5.24-2.13-10.16-4.03-15.76l-3.98,3.72-6.16-2.71-5.8-16.93c-2.91,7.04-6.37,11.78-3.66,18.51-5.62-2.59-8.45-4.99-8.1-11.73l-4.82.29-2.36-4.93-4.75-1.82,1.09-5.88c-3.92-2.18-9.95-2.17-15.41.43l-.77-9.77c-3.71-3.1-5.56-3.97-10.4-3.82-1.24-10.68.53-20.77,2.03-32.52l-7.45,4.92-4.5-11.62,1.2-4.67.76-3.26,9.78.9,6.08-7.92,3.91-3.54,2.58,3.11,5.64-8.44c2.91-.94,5.54-.29,10.52,1.63,1.81-5.13,5.14-10.92,10.51-15.85-3.45-2.57-6.99-5.35-6.13-11.09-3.82-7.09-9.9-12.27-15.8-16.65-3.07-6.63-8.3-10.7-11.89-15.51-3.95,3.46-5.26-2.67-7.81-3.69l.58-4.79-3.33-3.22c8.2-8.12,14.94-17.26,10.76-29.04-15.98-19.2-28.64-41.77-31.77-65.88-2.35-57.03,21.32-111.05,67.31-145.12,11.87-8.61,24.98-13.38,39.22-13.64-.86-3.12-.87-4.48-.15-5.37l6.23-1.75c15.68,2.27,25.82,15.03,30.24,29.54l.55.51-.76,1.9-.75-1.69c-4.25-5.72-10.43-9.43-17.86-9.53-7.05.46-16.75,2.15-16.27,12.35,11.09.36,21.22.17,29.02,7.74l5.04,1.14,4.13-4.01c10.82,22.28,16.54,46.38,17.05,71.54l1.89,37.15ZM444.43,425.95c-5.66,1.57-10.81,4.1-15.28,7.68-4.36,3.88-8.55,7.77-10.91,13.32-17.94,24.3-23.99,56.63-12.33,84.8,5.33,13.21,15.3,23.46,27.53,26.85,14.36,3.11,29.67-1.16,39.56-10.83,7.15-4.62,12.34-10.9,17.26-18.88,13.03-25.55,15.2-57.14,3.56-83.08-10.15-18.99-30.05-27.95-49.39-19.86ZM663.02,474.37c-6.02,4.57-9.04,12.46-11.15,19.44-9.47,29.37-5.84,59.7,16.13,82.4,22.86,20.08,57.57,21.79,81.74,2.46,19.56-16.86,28.18-44.28,22-68.18-7.05-6.11-5.99-15.46-13.85-20.23-2.02-12.5-13.35-19.34-18.1-31.26-22.78-19.28-60.41-11.83-76.77,15.37ZM749.41,467l-.09-1.02.09,1.02ZM750.51,466.99l-.51.51.5.5.5-.5-.49-.51ZM751.53,467.96l-.3.79,1.37,1.28.47-1.59-1.54-.47ZM783.11,649c0-.61-.5-1.11-1.11-1.11s-1.11.5-1.11,1.11.5,1.11,1.11,1.11,1.11-.5,1.11-1.11ZM679.29,821.36l2,4.77,2.85.62-1.05-3.38-3.8-2Z"/>
  <path class="st2" d="M615.37,522.88c6.68,13.15,1.15,25.77-3.77,38.87-5.61,13.56-12.54,26.9-22.46,38.26-10.5,11.96-24.12,18.95-40.13,18.89-10.8.73-19.77-4.86-24.96-14.44-9.26-21.26-13.05-44.45-14.45-67.92-4.69-.92-8.25-2.54-10.39-5.51-.93-4.04-.86-7.59-.12-11.87,5.08-12.03,13.37-21.8,21.31-31.65,8.93-8.06,17.93-16.39,29.2-21.77,12.44-7.11,25.39-3.62,35.38,6.64,13.44,14.39,23,31.89,30.39,50.51ZM542.27,604.64c25.06-7.09,42.7-28.11,56.46-49.12-19.49-6.98-40.25-1.01-53.64,12.11-8.5,11.08-13.35,26.44-2.82,37.01Z"/>
  <path class="st2" d="M721.06,402.22c-9.66-2.15-19.07-3.72-29.15-.05l-4.43-3.41c12.42-1.86,24.64-6.33,33.59,3.46Z"/>
  <polygon class="st3" points="855.5 335 856.02 335.5 855.5 336 855 335.5 855.5 335"/>
  <path class="st1" d="M844.83,934.46c-18.55,9.12-37.02,19.27-57.56,22.67l-.45,1.13-1.83-.45-3.16-.34,2.29-7.49c-12.54,5.82-25.65,8.49-39.95,7.98l-3.13,7.14-42.94,3.16-3.63-1.76-2.54,2.63-3.02.46-12.93-.12,3.8-5.87c-3.71-1.63-7.79-2.32-11.07-5.81l43.29,6.82c8.85-2.12,17.37-2.74,26.09-6.17-4.62-4.81-11.84-1.86-13.32-9.7,25.93,11.28,49.46,7.56,70.17-10.08l3.84-1.56-.63-3.21-4.2-2.51c8.36-.62,12.92-6.59,20.95-5.96,5.96.85,11.91,4.32,16.53-2.29-4.02-3.11-9.85-5.61-15.43-5.81-4.08,3.31-8.82,5.39-12.8,1.85l10.48-6c-4.86-2.58-1.18-3.57.01-3.98l5.89-1.4-14.14-11.32,11.38-1.33c-9.83-4.59-12.68-13.04-17.76-21.4l-3.71-6.99-7.55,2.29,2.34-6.27-4.15-5.67c2.64-4.41-1.55-6.53-4.61-11.12-4.33-2.04-8.43-6.22-7.09-11.15,20.84,20.63,46.27,39.03,75.52,45.08,17.23,3.75,32.47,9.68,50.43,10.23-10.94,16.27-26.11,26.61-43.39,34.07l-12.03,10.25Z"/>
  <path class="st2" d="M781.84,957.47l-.35.88-.84,1.56-8.35,20.04,3.12,1.3,1.74-1.6.95.52c6.99-.68,14.24-1.56,21.31-.75,11.23,2.13,17.81,11,16.13,21.95l-34.97,7.04c-10.61,2.11-18.14,7.16-23.89,16.18-8.01,9.96-16.78,17.61-28.67,20.66l-5.66-1.52c-3.69-5.32-7.15-9.51-7.42-15.97l3.83-14.32-21.21,12.08c-7.73,6-15.81,8.27-24.99,9.39l-3.6.06c-7.73-12.87-2.15-27,9.9-36.59,13.21-10.51,30.58-15,47.84-16.21,3.42-.61,6.75-1.16,8.68-2.84l2.84-7.4,2.82-6.86,3.13-7.14c14.31.51,27.42-2.16,39.95-7.98l-2.29,7.49ZM720.48,1034l9.36-.98,4,6.28c14.15-7.21,21.6-19.37,31.96-31.37l41.67-9.21,3.56-9.36-7.2-6.87c-9.99-1.67-21.47.17-30.7,3.33,1.3,3.74,1.8,5.55,2.18,8.29-5.25-.49-9.2-3.84-10.74-7.26,3.16-5.13,5.52-9.53.13-13.88,2.58-3.52-8.08-7.16-9.07-1.5-8.98,1.63-16.2,3.03-19.07,12.38l-36.44,6.9c-15.68,5.32-29.2,15.73-32.14,32.16,2.97-.34,4.73-.25,7.54.24l1.78,6.86c13.15-1.52,26.04-10.54,34.65-19.75.36-3.78,1.56-5.89,3.11-8.17,2.88-.34,5.4.46,8.22,1.94,5.54-1.69,9.49-8.47,16.37-7.72-13.84,7.99-24.74,22.85-19.15,37.68Z"/>
  <path class="st0" d="M642,968.89c-14.76,1.25-29.85,1.71-44.96.66-7.71-4.36-15.84.25-24.04-2.43l-3.17,1.42v2.85s-6.49-.29-6.49-.29l6.77-13.3c12.95,3.17,26.52,6.25,40.57,6.79l31.31,4.29Z"/>
  <path class="st0" d="M741.05,965.1l-2.82,6.86-35.29-2.08c-4.43,2.73-10.42,2.51-14.02-.28l3.02-.46,6.17-.87,42.94-3.16Z"/>
  <path class="st1" d="M763.53,821.63l8.83,11.08-13.78-5.64c.81-2.53,2.61-4.84,4.95-5.44Z"/>
  <path class="st1" d="M368.03,742.27l-2.25-4.18,3.78-12.23c.08,5.62-.39,11-1.53,16.41Z"/>
  <polygon class="st0" points="588.45 831.19 592.91 833.66 593.68 837.69 590.64 836.65 588.45 831.19"/>
  <path class="st3" d="M912.31,963.86l40.47,8.38c5.08,4.62,12.55-.69,18.22,2.79l-.73,2.49c-11.43,3.17-22.71.18-35.26,2.74-1.13,1.84-1.9,5.2-1.88,7.6l7.35,5.2c-8.46.07-16.18-.46-24.81,1.55,1.19,3.85,1.85,5.79,1.84,6.78-2.4,2.91-4.11,3.29-6.65.62-9.07,2.02-18.21,1.09-28.2-.35l-1.83,6.92-7.9.13c-10.39,3.78-20.77,6.53-31.83,4.47-8.53,5.6-18.79,8.28-28.17,4.65l-2.26,5.43-5.95-.74c-8.74,5.68-18.55,6.12-28.09,8.58-7.26,3.92-16.73,1.35-20.66,10.31l-27.95,3.83c11.89-3.05,20.66-10.7,28.67-20.66,5.76-9.03,13.28-14.07,23.89-16.18l34.97-7.04c1.69-10.95-4.89-19.82-16.13-21.95-7.07-.82-14.32.07-21.31.75l4.55-3.72c.37-1.81,1.23-4.15,3.54-4.29,1.7-1.05,6.41.86,1.06,2.94l19.84,1.68,1.96-2.54-2.92-3.56,14.94-.07c6.32-4.8,14.69-6.78,23.04-4.04,8.59-3.81,17.06-3.75,25.82.4,4.49-3.55,8.8-4.4,12.67.09,9.63-4.79,19.73-2.03,29.7-3.19Z"/>
  <path class="st4" d="M844.83,934.46l36.66,18.39c7.01-1.68,11.01,4.52,16.56,6.06l-17.31,2.36c-3.69-3.13-8.21-3.07-12.19,1.7-6.24-3.51-12.53-4.44-17.98-1.06-21.44-5.27-42.21-6.06-63.3-4.77,20.54-3.41,39.01-13.56,57.56-22.67Z"/>
  <path class="st0" d="M898.06,958.91l14.26,4.94c-9.97,1.16-20.06-1.6-29.7,3.19-3.87-4.5-8.18-3.65-12.67-.09-8.76-4.15-17.22-4.2-25.82-.4-8.36-2.73-16.72-.76-23.04,4.04l-14.94.07,2.92,3.56-1.96,2.54-19.84-1.68c5.34-2.09.64-3.99-1.06-2.94-2.31.14-3.16,2.48-3.54,4.29l-4.55,3.72-.95-.52-4.87.3,8.35-20.04.84-1.56.35-.88,3.16.34,1.83.45.45-1.13c21.1-1.29,41.86-.5,63.3,4.77,5.46-3.37,11.74-2.44,17.98,1.06,3.98-4.77,8.5-4.83,12.19-1.7l17.31-2.36Z"/>
  <path class="st3" d="M765.11,664.9l-11.59,13.34-3.93-3.37-5.79,1.65c-13.61.95-26.81,6.93-41.21,3.26,19.24-9.43,39.19-11.92,56.88-18.68-.91,5.03,4.05,2.53,5.64,3.81Z"/>
  <path class="st3" d="M791.31,639.79l20.09,3.72-24.03,7.25c-2.95.03-3.58-3.6-1.04-3.56l5.13-2.06-4.88-1.78.03-2.94,4.7-.63Z"/>
  <polygon class="st1" points="899.15 644.04 881.72 634.66 893.24 629.19 899.15 644.04"/>
  <rect class="st1" x="900.15" y="522.15" width=".71" height=".71" transform="translate(-105.71 789.79) rotate(-45)"/>
  <path class="st1" d="M482.75,1011.12l.48-8.71c-13.07-2.05-26.31,1.71-37.35-2.42,15.49,2.56,28.5-3.32,44.97-7.87,9.88-7.93,21.41-11.88,33.92-15.7-15.71-1.5-27.59,8.03-40.76,13.35-10.65,3.63-20.02,9.05-31.06,4.53l-.49-7.05-7.73-1.04.68-4.42.27-1.07,6.29-7.73c8.08-5.38,17.18-9.08,26.93-9.78,15.92-2.22,31.5-.25,48.06,2.66l5.77-7.49c2.35.07,5.28,1.35,7.87,2.69,3.8-4.04,5.52.65,7.45,2.55,4.09,2.79,3.82,5.96.9,10.32l-14.29-5.11c3.4,3.93,5.25,6.48,7,10.49l9.84,3.23c1.64,3.78,2.94,6.67,1.32,10.22-5.62,1.09-10.09,1.61-10.85,7.77-5.76-.69-9.8,2.33-15.4,4.35-10.23,5.47-20.8,11.81-32.25,10.68-.08-3.92-.99-5.78-3.97-7.72l-7.59,3.29Z"/>
  <path class="st3" d="M451.97,972.98l-6.29,7.73-.27,1.07-.68,4.42-2.75,7.68c.31,1.73,1.69,3.39,3.9,6.11,11.05,4.13,24.28.37,37.35,2.42l-.48,8.71,2.32,9.1c-4.67,2.5-9.22-1.11-13.4-4.06-7.27-1.28-15.04-1.67-18.23-9.21-10.06-1.98-19.12-7.76-25.05-16.29,4.27-4.74,10.07-5.38,11.14-10.59-.94-5.45,8.14-5.49,12.44-7.1Z"/>
  <path class="st3" d="M714.94,1027.77c.27,6.46,3.73,10.65,7.42,15.97-3.91-.06-7.87-1.36-11.4-4.02-6.36-.04-12.74-.95-19.29-2.31-3.69,2.13-9.65,1.43-12.52-1.34l35.79-8.3Z"/>
  <path class="st1" d="M714.94,1027.77l-35.79,8.3-6.58-1.15c9.18-1.12,17.26-3.39,24.99-9.39l21.21-12.08-3.83,14.32Z"/>
  <path class="st1" d="M388.48,637.8c-1.11-3.22-3.36-4.84-5.62-6.88l1.62-1.42c6.6,4.53,13.25,9.82,18.9,15.2l-.88,3.11-14.01-10.01Z"/>
  <path class="st1" d="M384.48,629.5l-2.78.45-.8-.93-4.28-6.35c4.24,1.33,6.4,4.02,7.87,6.83Z"/>
  <circle class="st3" cx="604" cy="955" r="1.11"/>
  <polygon class="st4" points="744.66 251.49 745.34 251.49 745.99 251.5 745.34 251.51 744.66 251.51 744.01 251.5 744.66 251.49"/>
  <path class="st2" d="M757.9,490.26c7.11,23.12,3.45,48.48-12.03,67.48-12.16,14.71-29.36,22.27-48.66,19.89-16.79-2.52-32.48-13.92-40.19-30.8-7.54-16.95-6.84-35.8-1.06-53.02,4.11-10.52,10.15-20.08,17.94-28.67l-10.87,9.22c16.36-27.2,53.99-34.65,76.77-15.37,4.76,11.92,16.09,18.76,18.1,31.26ZM736.04,500.44c5.71-5.24,6.46-13,2.84-19.57-2.61-5.43-8.53-9.58-15.53-9.29-10.49,2.05-15.41,12.99-11.62,22.34,3.9,9.64,15.21,13.53,24.31,6.51Z"/>
  <path class="st2" d="M472.99,547.77c-18.97,8.9-39.22,0-49.51-18.92-14.15-27.44-7.75-61.38,10.72-85.81,6.74-7.09,14.34-12.64,23.93-15.84-5.16-.25-9.75.27-14.17,1.1l.45-2.34c19.34-8.09,39.24.87,49.39,19.86,11.64,25.94,9.47,57.53-3.56,83.08-4.92,7.97-10.11,14.26-17.26,18.88ZM481.77,479.46c7.83-2.46,10.47-9.3,9.11-16.67-1.03-6-5.54-12.08-12.82-12.63-8.3,1.42-12.77,9.17-11.76,17.13.83,7.25,6.94,13.63,15.47,12.17Z"/>
  <path class="st4" d="M651.88,493.81h4.08c-5.78,17.23-6.49,36.08,1.06,53.03,7.71,16.88,23.4,28.28,40.19,30.8,19.3,2.38,36.51-5.18,48.66-19.89,15.49-19,19.14-44.36,12.03-67.48,7.86,4.77,6.8,14.12,13.85,20.23,6.18,23.9-2.44,51.32-22,68.18-24.17,19.33-58.88,17.62-81.74-2.46-21.97-22.71-25.59-53.04-16.13-82.4Z"/>
  <path class="st4" d="M434.21,443.03c-18.47,24.43-24.87,58.37-10.72,85.81,10.28,18.91,30.54,27.83,49.51,18.92-9.89,9.67-25.2,13.94-39.56,10.83-12.23-3.4-22.19-13.64-27.53-26.85-11.66-28.18-5.61-60.51,12.33-84.8l2.11-.75,13.86-3.16Z"/>
  <path class="st3" d="M524.06,604.46c5.19,9.58,14.16,15.17,24.96,14.44,16.01.05,29.64-6.94,40.13-18.89,9.92-11.35,16.84-24.69,22.46-38.26,1.41,3.39,3.67,15.14-3.33,13.46-8.57,15.12-18.04,29.41-32.05,42.09-8.22,8.1-18.57,12.81-30.98,16.58-10.39-5.57-21.86-16.68-21.19-29.42Z"/>
  <path class="st1" d="M655.95,493.82h-4.08c2.1-6.99,5.13-14.88,11.15-19.45l10.87-9.22c-7.79,8.59-13.83,18.15-17.94,28.67Z"/>
  <path class="st1" d="M444.43,425.95l-.45,2.34-14.9,7.79.07-2.46c4.47-3.58,9.62-6.11,15.28-7.68Z"/>
  <path class="st3" d="M429.08,436.09l-8.73,10.11-2.11.75c2.36-5.55,6.55-9.44,10.91-13.32l-.07,2.46Z"/>
  <polygon class="st3" points="679.29 821.36 683.08 823.37 684.13 826.74 681.28 826.13 679.29 821.36"/>
  <circle class="st3" cx="782" cy="649" r="1.11"/>
  <polygon class="st1" points="749.41 467 749.32 465.98 750.51 466.99 751 467.5 751.53 467.96 753.07 468.43 752.59 470.03 751.22 468.75 750.5 468 750 467.5 749.41 467"/>
  <path class="st1" d="M542.27,604.64c-10.53-10.57-5.69-25.93,2.82-37.01,13.4-13.11,34.16-19.09,53.64-12.11-13.76,21-31.4,42.03-56.46,49.12Z"/>
  <polygon class="st3" points="698.11 968.26 691.94 969.13 694.48 966.5 698.11 968.26"/>
  <path class="st4" d="M786.83,958.26l-1.83-.45,1.83.45Z"/>
  <path class="st1" d="M720.48,1034c-5.59-14.83,5.31-29.69,19.15-37.68-6.89-.75-10.83,6.02-16.37,7.72-2.81-1.49-5.33-2.28-8.22-1.94-1.55,2.28-2.75,4.39-3.11,8.17-8.61,9.21-21.5,18.23-34.65,19.75l-1.78-6.86c-2.8-.49-4.57-.58-7.54-.24,2.94-16.43,16.46-26.84,32.14-32.16l36.44-6.9c2.87-9.35,10.1-10.75,19.07-12.38,1-5.66,11.66-2.03,9.07,1.5,5.39,4.34,3.03,8.74-.13,13.88,1.54,3.42,5.49,6.77,10.74,7.26-.38-2.74-.88-4.55-2.18-8.29,9.24-3.16,20.71-5,30.7-3.33l7.2,6.87-3.56,9.36-41.67,9.21c-10.35,12-17.81,24.16-31.96,31.37l-4-6.28-9.36.98ZM770.5,1003l-.5.5.5.5.5-.5-.5-.5Z"/>
  <polygon class="st3" points="777.16 979.65 775.42 981.24 772.29 979.94 777.16 979.65"/>
  <path class="st4" d="M780.64,959.9l.84-1.56-.84,1.56Z"/>
  <path class="st2" d="M445.88,999.99c-2.21-2.72-3.59-4.38-3.9-6.11l2.75-7.68,7.73,1.04.49,7.05c11.05,4.52,20.42-.9,31.06-4.53,13.17-5.32,25.05-14.85,40.76-13.35-12.51,3.82-24.04,7.77-33.92,15.7-16.47,4.55-29.47,10.43-44.97,7.87Z"/>
  <path class="st2" d="M445.41,981.78l.27-1.07-.27,1.07Z"/>
  <path class="st4" d="M736.04,500.44c-9.1,7.02-20.41,3.13-24.31-6.51-3.79-9.36,1.13-20.29,11.62-22.34,7-.3,12.92,3.85,15.53,9.29,3.61,6.56,2.87,14.33-2.84,19.57Z"/>
  <path class="st4" d="M481.77,479.46c-8.53,1.46-14.64-4.92-15.47-12.17-1.01-7.96,3.46-15.71,11.76-17.13,7.28.55,11.78,6.62,12.82,12.63,1.37,7.38-1.28,14.21-9.11,16.67Z"/>
  <path class="st0" d="M434.21,443.03l-13.86,3.16,8.73-10.11,14.9-7.79c4.41-.83,9.01-1.35,14.17-1.1-9.6,3.2-17.19,8.75-23.93,15.84Z"/>
  <rect class="st2" x="770.15" y="1003.15" width=".71" height=".71" transform="translate(-483.91 838.74) rotate(-45)"/>
</svg>