<svg xmlns="http://www.w3.org/2000/svg" width="3224" height="33464" viewBox="0 0 3224 33464"><path d="M 2758 10 L 2758 10" stroke="#FFFC00" stroke-width="50" fill="none" stroke-linecap="round" stroke-linejoin="round" opacity="0.50"/>
<path d="M 10 12064 L 51 12068 L 77 12061 L 71 12051 L 54 12027 L 45 12020 L 34 12008 L 22 12005 L 10 12001" stroke="#FFFC00" stroke-width="50" fill="none" stroke-linecap="round" stroke-linejoin="round" opacity="0.50"/>
<path d="M 10 12385 L 42 12403 L 68 12417 L 69 12417 L 63 12417 L 47 12417 L 30 12417 L 10 12417" stroke="#FFFC00" stroke-width="50" fill="none" stroke-linecap="round" stroke-linejoin="round" opacity="0.50"/>
<path d="M 3214 33454 L 3214 33421 L 3214 33399 L 3214 33382 L 3214 33369 L 3214 33359 L 3214 33339 L 3214 33328 L 3214 33312 L 3214 33300 L 3214 33287 L 3214 33272 L 3214 33259 L 3214 33246" stroke="#FFF952" stroke-width="50" fill="none" stroke-linecap="round" stroke-linejoin="round" opacity="0.50"/>
<path d="M 2710 24448 L 2712 24517 L 2715 24596 L 2716 24681 L 2718 24759 L 2718 24830 L 2718 24887 L 2718 24942 L 2718 25005 L 2720 25074 L 2722 25145 L 2728 25224 L 2737 25308 L 2750 25399 L 2764 25472 L 2778 25543 L 2790 25595 L 2802 25649 L 2815 25704 L 2828 25759 L 2841 25816 L 2854 25873 L 2867 25932 L 2880 25991 L 2893 26049 L 2906 26108 L 2918 26166 L 2930 26224 L 2942 26281 L 2954 26338 L 2966 26393 L 2976 26448 L 2986 26501 L 2995 26554 L 3004 26626 L 3011 26702 L 3020 26793 L 3021 26882 L 3025 26964 L 3023 27041 L 3024 27116 L 3022 27181 L 3021 27246 L 3017 27303 L 3009 27358 L 2993 27409 L 2971 27457 L 2939 27502 L 2902 27546" stroke="#FFF952" stroke-width="50" fill="none" stroke-linecap="round" stroke-linejoin="round" opacity="0.50"/>
<path d="M 2966 24937 L 2966 24999 L 2966 25075 L 2966 25154 L 2966 25233 L 2966 25303 L 2966 25363 L 2966 25421 L 2966 25490 L 2966 25559 L 2966 25636 L 2966 25713 L 2966 25796 L 2966 25880 L 2968 25969 L 2972 26057 L 2978 26148 L 2989 26239 L 2999 26328 L 3013 26418 L 3023 26503 L 3034 26587 L 3042 26662 L 3047 26736 L 3052 26797 L 3053 26855 L 3054 26903 L 3054 26943 L 3054 26975 L 3054 26999 L 3053 27020 L 3047 27033 L 3032 27056 L 3007 27076 L 2974 27106" stroke="#FFF952" stroke-width="50" fill="none" stroke-linecap="round" stroke-linejoin="round" opacity="0.50"/></svg>